<svg width="270.0000000000002px" height="324.0000000000003px" viewBox="405 378 270.0000000000002 324.0000000000003" fill="none" xmlns="http://www.w3.org/2000/svg"><g id="401:5601"><g id="Group 68"><path id="Vector" d="M570.54 507C571.479 506.061 572.007 504.788 572.007 503.46C572.007 502.132 571.479 500.859 570.54 499.92C569.602 498.981 568.328 498.454 567 498.454C565.673 498.454 564.399 498.981 563.46 499.92L545 518.39V505.57L570.54 480C571.479 479.061 572.007 477.788 572.007 476.46C572.007 475.132 571.479 473.859 570.54 472.92C569.602 471.981 568.328 471.454 567 471.454C565.673 471.454 564.399 471.981 563.46 472.92L545 491.39V449.5C545 448.174 544.474 446.902 543.536 445.964C542.598 445.027 541.327 444.5 540 444.5C538.674 444.5 537.403 445.027 536.465 445.964C535.527 446.902 535 448.174 535 449.5V491.43L516.54 473C515.602 472.061 514.328 471.534 513 471.534C511.673 471.534 510.399 472.061 509.46 473C508.522 473.939 507.994 475.212 507.994 476.54C507.994 477.868 508.522 479.141 509.46 480.08L535 505.61V518.47L516.54 500C515.602 499.061 514.328 498.534 513 498.534C511.673 498.534 510.399 499.061 509.46 500C508.522 500.939 507.994 502.212 507.994 503.54C507.994 504.868 508.522 506.141 509.46 507.08L535 532.61V545.47L516.54 527C515.602 526.061 514.328 525.534 513 525.534C511.673 525.534 510.399 526.061 509.46 527C508.522 527.939 507.994 529.212 507.994 530.54C507.994 531.868 508.522 533.141 509.46 534.08L535 559.61V572.47L516.54 554C515.602 553.061 514.328 552.534 513 552.534C511.673 552.534 510.399 553.061 509.46 554C508.522 554.939 507.994 556.212 507.994 557.54C507.994 558.868 508.522 560.141 509.46 561.08L535 586.61V599.47L516.54 581C515.602 580.061 514.328 579.534 513 579.534C511.673 579.534 510.399 580.061 509.46 581C508.522 581.939 507.994 583.212 507.994 584.54C507.994 585.868 508.522 587.141 509.46 588.08L535 613.61V626.47L516.54 608C515.602 607.061 514.328 606.534 513 606.534C511.673 606.534 510.399 607.061 509.46 608C508.522 608.939 507.994 610.212 507.994 611.54C507.994 612.868 508.522 614.141 509.46 615.08L535 640.61V692.5C535 693.826 535.527 695.098 536.465 696.036C537.403 696.973 538.674 697.5 540 697.5C541.327 697.5 542.598 696.973 543.536 696.036C544.474 695.098 545 693.826 545 692.5V640.57L570.54 615C571.479 614.061 572.007 612.788 572.007 611.46C572.007 610.132 571.479 608.859 570.54 607.92C569.602 606.981 568.328 606.454 567 606.454C565.673 606.454 564.399 606.981 563.46 607.92L545 626.39V613.57L570.54 588C571.005 587.535 571.374 586.983 571.626 586.376C571.877 585.768 572.007 585.117 572.007 584.46C572.007 583.803 571.877 583.152 571.626 582.544C571.374 581.937 571.005 581.385 570.54 580.92C570.076 580.455 569.524 580.086 568.916 579.835C568.309 579.583 567.658 579.454 567 579.454C566.343 579.454 565.692 579.583 565.085 579.835C564.477 580.086 563.925 580.455 563.46 580.92L545 599.39V586.57L570.54 561C571.005 560.535 571.374 559.983 571.626 559.376C571.877 558.768 572.007 558.117 572.007 557.46C572.007 556.803 571.877 556.152 571.626 555.544C571.374 554.937 571.005 554.385 570.54 553.92C570.076 553.455 569.524 553.086 568.916 552.835C568.309 552.583 567.658 552.454 567 552.454C566.343 552.454 565.692 552.583 565.085 552.835C564.477 553.086 563.925 553.455 563.46 553.92L545 572.39V559.57L570.54 534C571.005 533.535 571.374 532.983 571.626 532.376C571.877 531.768 572.007 531.117 572.007 530.46C572.007 529.803 571.877 529.152 571.626 528.544C571.374 527.937 571.005 527.385 570.54 526.92C570.076 526.455 569.524 526.086 568.916 525.835C568.309 525.583 567.658 525.454 567 525.454C566.343 525.454 565.692 525.583 565.085 525.835C564.477 526.086 563.925 526.455 563.46 526.92L545 545.39V532.57L570.54 507Z" fill="#017802"/><path id="Vector_2" d="M565 422.5C561.962 422.499 558.95 423.051 556.11 424.13C554.828 415.01 552.076 406.159 547.96 397.92L539.96 382L531.96 397.92C527.844 406.159 525.091 415.01 523.81 424.13C520.97 423.051 517.958 422.499 514.92 422.5H485.92L539.92 476.5L593.92 422.5H565Z" fill="#E47304"/><path id="Vector_3" d="M594 417.5H564.16C560.875 417.491 557.622 418.133 554.587 419.389C551.552 420.646 548.797 422.492 546.48 424.82L540 431.3L533.52 424.82C531.203 422.492 528.448 420.646 525.413 419.389C522.378 418.133 519.125 417.491 515.84 417.5H486C484.674 417.5 483.402 418.027 482.464 418.965C481.527 419.902 481 421.174 481 422.5C481 423.826 481.527 425.098 482.464 426.036C483.402 426.973 484.674 427.5 486 427.5H515.84C517.811 427.495 519.763 427.881 521.584 428.634C523.405 429.388 525.059 430.494 526.45 431.89L532.93 438.38L517.41 453.89C516.709 454.589 516.231 455.481 516.038 456.452C515.844 457.423 515.943 458.43 516.322 459.345C516.701 460.259 517.344 461.041 518.167 461.59C518.991 462.14 519.96 462.432 520.95 462.43C522.275 462.427 523.545 461.898 524.48 460.96L553.55 431.89C554.941 430.494 556.595 429.388 558.416 428.634C560.237 427.881 562.189 427.495 564.16 427.5H594C595.326 427.5 596.598 426.973 597.536 426.036C598.473 425.098 599 423.826 599 422.5C599 421.174 598.473 419.902 597.536 418.965C596.598 418.027 595.326 417.5 594 417.5V417.5Z" fill="#945035"/><path id="Vector_4" d="M489.54 588C490.479 587.061 491.007 585.788 491.007 584.46C491.007 583.132 490.479 581.859 489.54 580.92C488.602 579.981 487.328 579.454 486 579.454C484.673 579.454 483.399 579.981 482.46 580.92L464 599.39V586.57L489.54 561C490.479 560.061 491.007 558.788 491.007 557.46C491.007 556.132 490.479 554.859 489.54 553.92C488.602 552.981 487.328 552.454 486 552.454C484.673 552.454 483.399 552.981 482.46 553.92L464 572.39V530.5C464 529.174 463.474 527.902 462.536 526.964C461.598 526.027 460.327 525.5 459 525.5C457.674 525.5 456.403 526.027 455.465 526.964C454.527 527.902 454 529.174 454 530.5V572.43L435.54 554C434.602 553.061 433.328 552.534 432 552.534C430.673 552.534 429.399 553.061 428.46 554C427.522 554.939 426.994 556.212 426.994 557.54C426.994 558.868 427.522 560.141 428.46 561.08L454 586.61V599.47L435.54 581C434.602 580.061 433.328 579.534 432 579.534C430.673 579.534 429.399 580.061 428.46 581C427.522 581.939 426.994 583.212 426.994 584.54C426.994 585.868 427.522 587.141 428.46 588.08L454 613.61V626.47L435.54 608C434.602 607.061 433.328 606.534 432 606.534C430.673 606.534 429.399 607.061 428.46 608C427.522 608.939 426.994 610.212 426.994 611.54C426.994 612.868 427.522 614.141 428.46 615.08L454 640.61V692.5C454 693.826 454.527 695.098 455.465 696.036C456.403 696.973 457.674 697.5 459 697.5C460.327 697.5 461.598 696.973 462.536 696.036C463.474 695.098 464 693.826 464 692.5V640.57L489.54 615C490.479 614.061 491.007 612.788 491.007 611.46C491.007 610.132 490.479 608.859 489.54 607.92C488.602 606.981 487.328 606.454 486 606.454C484.673 606.454 483.399 606.981 482.46 607.92L464 626.39V613.57L489.54 588Z" fill="#017802"/><path id="Vector_5" d="M484 503.5C477.37 503.5 471.011 506.134 466.322 510.822C461.634 515.511 459 521.87 459 528.5C459 521.87 456.366 515.511 451.678 510.822C446.989 506.134 440.63 503.5 434 503.5H405L459 557.5L513 503.5H484Z" fill="#E47304"/><path id="Vector_6" d="M459 562.5C457.674 562.5 456.402 561.973 455.464 561.036C454.527 560.098 454 558.826 454 557.5V528.5C454 527.174 454.527 525.902 455.464 524.964C456.402 524.027 457.674 523.5 459 523.5C460.326 523.5 461.598 524.027 462.536 524.964C463.473 525.902 464 527.174 464 528.5V557.5C464 558.826 463.473 560.098 462.536 561.036C461.598 561.973 460.326 562.5 459 562.5Z" fill="#945035"/><path id="Vector_7" d="M651.54 561C652.005 560.535 652.374 559.983 652.626 559.376C652.877 558.768 653.007 558.117 653.007 557.46C653.007 556.803 652.877 556.152 652.626 555.544C652.374 554.937 652.005 554.385 651.54 553.92C651.076 553.455 650.524 553.086 649.916 552.835C649.309 552.583 648.658 552.454 648 552.454C647.343 552.454 646.692 552.583 646.085 552.835C645.477 553.086 644.925 553.455 644.46 553.92L626 572.39V559.57L651.54 534C652.005 533.535 652.374 532.983 652.626 532.376C652.877 531.768 653.007 531.117 653.007 530.46C653.007 529.803 652.877 529.152 652.626 528.544C652.374 527.937 652.005 527.385 651.54 526.92C651.076 526.455 650.524 526.086 649.916 525.835C649.309 525.583 648.658 525.454 648 525.454C647.343 525.454 646.692 525.583 646.085 525.835C645.477 526.086 644.925 526.455 644.46 526.92L626 545.39V503.5C626 502.174 625.474 500.902 624.536 499.964C623.598 499.027 622.327 498.5 621 498.5C619.674 498.5 618.403 499.027 617.465 499.964C616.527 500.902 616 502.174 616 503.5V545.43L597.54 527C596.602 526.061 595.328 525.534 594 525.534C592.673 525.534 591.399 526.061 590.46 527C589.522 527.939 588.994 529.212 588.994 530.54C588.994 531.868 589.522 533.141 590.46 534.08L616 559.61V572.47L597.54 554C596.602 553.061 595.328 552.534 594 552.534C592.673 552.534 591.399 553.061 590.46 554C589.522 554.939 588.994 556.212 588.994 557.54C588.994 558.868 589.522 560.141 590.46 561.08L616 586.61V599.47L597.54 581C596.602 580.061 595.328 579.534 594 579.534C592.673 579.534 591.399 580.061 590.46 581C589.522 581.939 588.994 583.212 588.994 584.54C588.994 585.868 589.522 587.141 590.46 588.08L616 613.61V626.47L597.54 608C596.602 607.061 595.328 606.534 594 606.534C592.673 606.534 591.399 607.061 590.46 608C589.522 608.939 588.994 610.212 588.994 611.54C588.994 612.868 589.522 614.141 590.46 615.08L616 640.61V653.47L597.54 635C596.602 634.061 595.328 633.534 594 633.534C592.673 633.534 591.399 634.061 590.46 635C589.522 635.939 588.994 637.212 588.994 638.54C588.994 639.868 589.522 641.141 590.46 642.08L616 667.61V692.5C616 693.826 616.527 695.098 617.465 696.036C618.403 696.973 619.674 697.5 621 697.5C622.327 697.5 623.598 696.973 624.536 696.036C625.474 695.098 626 693.826 626 692.5V667.57L651.54 642C652.479 641.061 653.007 639.788 653.007 638.46C653.007 637.132 652.479 635.859 651.54 634.92C650.602 633.981 649.328 633.454 648 633.454C646.673 633.454 645.399 633.981 644.46 634.92L626 653.39V640.57L651.54 615C652.479 614.061 653.007 612.788 653.007 611.46C653.007 610.132 652.479 608.859 651.54 607.92C650.602 606.981 649.328 606.454 648 606.454C646.673 606.454 645.399 606.981 644.46 607.92L626 626.39V613.57L651.54 588C652.005 587.535 652.374 586.983 652.626 586.376C652.877 585.768 653.007 585.117 653.007 584.46C653.007 583.803 652.877 583.152 652.626 582.544C652.374 581.937 652.005 581.385 651.54 580.92C651.076 580.455 650.524 580.086 649.916 579.835C649.309 579.583 648.658 579.454 648 579.454C647.343 579.454 646.692 579.583 646.085 579.835C645.477 580.086 644.925 580.455 644.46 580.92L626 599.39V586.57L651.54 561Z" fill="#017802"/><path id="Vector_8" d="M646 476.5C639.37 476.5 633.011 479.134 628.322 483.822C623.634 488.511 621 494.87 621 501.5C621 494.87 618.366 488.511 613.678 483.822C608.989 479.134 602.63 476.5 596 476.5H567L621 530.5L675 476.5H646Z" fill="#E47304"/><path id="Vector_9" d="M621 535.5C619.674 535.5 618.402 534.973 617.464 534.036C616.527 533.098 616 531.826 616 530.5V501.5C616 500.174 616.527 498.902 617.464 497.964C618.402 497.027 619.674 496.5 621 496.5C622.326 496.5 623.598 497.027 624.536 497.964C625.473 498.902 626 500.174 626 501.5V530.5C626 531.826 625.473 533.098 624.536 534.036C623.598 534.973 622.326 535.5 621 535.5Z" fill="#945035"/></g></g></svg>